<svg width="37" height="37" viewBox="0 0 37 37" fill="none" xmlns="http://www.w3.org/2000/svg">
<ellipse cx="18.1147" cy="18.4224" rx="17.9984" ry="18" fill="#4E6297"/>
<path d="M26.214 12.8591C26.214 11.5114 25.025 10.3223 23.6774 10.3223H13.4519C12.1043 10.3223 10.9153 11.5114 10.9153 12.8591V23.0855C10.9153 24.4331 12.1043 25.6223 13.4519 25.6223H18.6043V19.8352H16.7018V17.2984H18.6043V16.2679C18.6043 14.5238 19.8726 13.0176 21.4579 13.0176H23.5189V15.5544H21.4579C21.2201 15.5544 20.9823 15.7922 20.9823 16.2679V17.2984H23.5189V19.8352H20.9823V25.6223H23.6774C25.025 25.6223 26.214 24.4331 26.214 23.0855V12.8591Z" fill="white"/>
</svg>
