<svg width="37" height="37" viewBox="0 0 37 37" fill="none" xmlns="http://www.w3.org/2000/svg">
<ellipse cx="18.8192" cy="18.4224" rx="17.9984" ry="18" fill="#F79A38"/>
<path d="M24.4326 20.936C24.9048 20.4638 24.9723 19.7891 24.5675 19.1145C24.2302 18.5747 23.6231 18.3049 22.9485 18.4398C22.6787 18.5073 22.4088 18.6422 22.139 18.8446C20.0478 20.2614 17.2145 20.1939 15.1233 18.7771C14.9884 18.7097 14.8534 18.6422 14.7185 18.5747C13.9765 18.2374 13.2344 18.3724 12.8297 19.047C12.3575 19.7216 12.4249 20.4638 13.032 21.0709C13.167 21.2059 13.3019 21.2733 13.3693 21.4083L13.4368 21.4757C14.3812 22.2178 15.528 22.6901 17.0121 22.8925L16.1352 23.7695C15.3931 24.5117 14.5836 25.3212 13.8416 26.0633C13.6392 26.2657 13.3693 26.6031 13.3693 27.0753C13.3693 27.6825 13.7066 28.2897 14.3138 28.5595C14.5161 28.6945 14.7185 28.6945 14.9209 28.6945C15.2582 28.6945 15.6629 28.5595 15.9328 28.2222C16.9447 27.2102 17.7542 26.4007 18.5637 25.5911C18.6311 25.5236 18.6311 25.5236 18.6311 25.5236C18.6311 25.5236 18.6986 25.5236 18.6986 25.5911C19.2383 26.1983 19.8454 26.738 20.3851 27.3452C20.6549 27.615 20.9248 27.8849 21.1946 28.1548C21.5319 28.4921 21.8017 28.627 22.2065 28.627C22.8136 28.6945 23.4882 28.2897 23.758 27.6825C24.0279 27.1428 23.893 26.4681 23.4207 26.0633C22.7461 25.3887 22.0716 24.6466 21.3295 23.9719L20.1827 22.825C20.7898 22.7576 21.4644 22.6226 22.0716 22.3528C23.0834 22.0155 23.8255 21.5432 24.4326 20.936Z" fill="white"/>
<path d="M18.6311 19.047C21.5319 19.047 23.893 16.7532 23.893 13.8522C23.893 12.4354 23.3533 11.0861 22.3414 10.0742C21.3295 9.06218 20.0478 8.52246 18.6986 8.52246C15.7979 8.52246 13.5043 10.8837 13.4368 13.7173C13.4368 15.134 13.9765 16.4159 14.9884 17.4278C15.9328 18.5073 17.2145 19.047 18.6311 19.047ZM17.147 12.3005C17.5518 11.8957 18.0915 11.6933 18.6311 11.6933C19.8454 11.6933 20.7224 12.6378 20.7224 13.7847C20.7224 14.9991 19.7779 15.8761 18.6311 15.8761C17.4169 15.8761 16.5399 14.9316 16.5399 13.7847C16.5399 13.245 16.7423 12.7053 17.147 12.3005Z" fill="white"/>
<path d="M24.4326 20.936C24.9048 20.4638 24.9723 19.7891 24.5675 19.1145C24.2302 18.5747 23.6231 18.3049 22.9485 18.4398C22.6787 18.5073 22.4088 18.6422 22.139 18.8446C20.0478 20.2614 17.2145 20.1939 15.1233 18.7771C14.9884 18.7097 14.8534 18.6422 14.7185 18.5747C13.9765 18.2374 13.2344 18.3724 12.8297 19.047C12.3575 19.7216 12.4249 20.4638 13.032 21.0709C13.167 21.2059 13.3019 21.2733 13.3693 21.4083L13.4368 21.4757C14.3812 22.2178 15.528 22.6901 17.0121 22.8925L16.1352 23.7695C15.3931 24.5117 14.5836 25.3212 13.8416 26.0633C13.6392 26.2657 13.3693 26.6031 13.3693 27.0753C13.3693 27.6825 13.7066 28.2897 14.3138 28.5595C14.5161 28.6945 14.7185 28.6945 14.9209 28.6945C15.2582 28.6945 15.6629 28.5595 15.9328 28.2222C16.9447 27.2102 17.7542 26.4007 18.5637 25.5911C18.6311 25.5236 18.6311 25.5236 18.6311 25.5236C18.6311 25.5236 18.6986 25.5236 18.6986 25.5911C19.2383 26.1983 19.8454 26.738 20.3851 27.3452C20.6549 27.615 20.9248 27.8849 21.1946 28.1548C21.5319 28.4921 21.8017 28.627 22.2065 28.627C22.8136 28.6945 23.4882 28.2897 23.758 27.6825C24.0279 27.1428 23.893 26.4681 23.4207 26.0633C22.7461 25.3887 22.0716 24.6466 21.3295 23.9719L20.1827 22.825C20.7898 22.7576 21.4644 22.6226 22.0716 22.3528C23.0834 22.0155 23.8255 21.5432 24.4326 20.936Z" fill="white"/>
</svg>
