<svg width="37" height="37" viewBox="0 0 37 37" fill="none" xmlns="http://www.w3.org/2000/svg">
<ellipse cx="18.5234" cy="18.4224" rx="17.9985" ry="18" fill="#00A9E7"/>
<path d="M27.809 19.3838C27.8703 18.8929 27.9317 18.4634 27.9317 17.9725C27.9317 13.0634 23.9434 9.01337 18.9734 9.01337C18.4825 9.01337 18.053 9.07473 17.5621 9.1361C16.7645 8.70655 15.9054 8.52246 15.0464 8.52246C11.9785 8.52246 9.52417 10.977 9.52417 14.0452C9.52417 14.9043 9.70825 15.7634 10.1378 16.5611C10.0764 17.052 10.015 17.4816 10.015 17.9725C10.015 22.8816 14.0033 26.9316 18.9734 26.9316C19.4642 26.9316 19.8937 26.8702 20.3846 26.8088C21.1823 27.177 22.0413 27.4225 22.9003 27.4225C25.9682 27.4225 28.4225 24.9679 28.4225 21.8997C28.4225 21.0406 28.1771 20.1816 27.809 19.3838ZM22.7162 21.2247C22.5321 21.5929 22.2867 21.8997 21.9186 22.1452C21.5504 22.3906 21.1823 22.5747 20.6914 22.6975C20.2005 22.8202 19.6483 22.8816 19.0347 22.8816C17.7462 22.8816 16.7031 22.5747 15.9668 22.0225C15.5373 21.6543 15.1691 21.2247 14.9851 20.6725C14.7396 20.1816 15.1691 19.5679 15.7827 19.5679H15.9668C16.3349 19.5679 16.7031 19.8134 16.8258 20.1202C16.9485 20.427 17.1326 20.6725 17.378 20.8566C17.7462 21.1634 18.2984 21.2861 18.9734 21.2861C19.5869 21.2861 20.0778 21.1634 20.446 20.9793C20.8141 20.7952 20.9982 20.427 20.9982 20.0588C20.9982 19.8747 20.9368 19.752 20.8755 19.6293C20.8141 19.5066 20.63 19.3838 20.5073 19.3225C20.3232 19.1997 20.1392 19.1384 19.8324 19.077C19.5869 19.0156 19.2802 18.8929 18.912 18.8316L18.5438 18.7088C18.1143 18.5861 17.6235 18.4634 17.2553 18.3406C16.8258 18.2179 16.4577 18.0338 16.1509 17.8497C15.8441 17.6656 15.5986 17.4202 15.4146 17.052C15.2305 16.7452 15.1691 16.3156 15.1691 15.8247C15.1691 15.3338 15.2919 14.9043 15.4759 14.5361C15.66 14.1679 15.9668 13.8611 16.2736 13.677C16.6417 13.4316 17.0099 13.2475 17.5008 13.1861C17.9303 13.0634 18.4211 13.002 18.9734 13.002C19.5869 13.002 20.0778 13.0634 20.5687 13.1861C21.0595 13.3088 21.4277 13.4929 21.7958 13.7997C22.164 14.0452 22.4094 14.352 22.5935 14.7816C22.9003 15.3338 22.4708 16.0702 21.7958 16.0702H21.6118C21.2436 16.0702 20.9368 15.8861 20.7528 15.5793C20.63 15.3952 20.5073 15.2111 20.3232 15.027C20.0165 14.7816 19.5256 14.6588 18.9734 14.6588C18.4211 14.6588 17.9916 14.7816 17.6848 14.9656C17.378 15.1497 17.2553 15.4566 17.2553 15.7634C17.2553 15.9475 17.3167 16.0702 17.378 16.1929C17.4394 16.3156 17.5621 16.4384 17.7462 16.4997C17.9303 16.5611 18.1143 16.6838 18.3598 16.7452C18.6052 16.8066 18.912 16.8679 19.2802 16.9906C19.6483 17.052 19.9551 17.1747 20.3232 17.2361C20.63 17.2975 20.9368 17.4202 21.2436 17.4816C21.5504 17.6043 21.7958 17.727 22.0413 17.8497C22.2867 17.9725 22.4708 18.1566 22.6549 18.3406C22.8389 18.5247 22.9617 18.7702 23.023 19.0156C23.1457 19.2611 23.1457 19.6293 23.1457 19.9975C23.023 20.427 22.9003 20.8566 22.7162 21.2247Z" fill="white"/>
</svg>
