<svg width="37" height="37" viewBox="0 0 37 37" fill="none" xmlns="http://www.w3.org/2000/svg">
<ellipse cx="18.9323" cy="18.4224" rx="17.9985" ry="18" fill="#2F89CE"/>
<path d="M9.34881 18.7588L13.4867 20.3019L15.0998 25.4923C15.17 25.843 15.5908 25.9131 15.8713 25.7027L18.1857 23.8089C18.3961 23.5985 18.7468 23.5985 19.0273 23.8089L23.1653 26.825C23.4458 27.0354 23.8666 26.8951 23.9367 26.5444L27.0227 11.815C27.0928 11.4643 26.7421 11.1136 26.3914 11.2538L9.34881 17.847C8.928 17.9873 8.928 18.6186 9.34881 18.7588ZM14.8894 19.5304L23.025 14.5504C23.1653 14.4803 23.3055 14.6907 23.1653 14.7609L16.5025 21.0033C16.2921 21.2138 16.0817 21.4943 16.0817 21.845L15.8713 23.5284C15.8713 23.7388 15.5206 23.8089 15.4505 23.5284L14.6089 20.4422C14.3985 20.0915 14.5388 19.6707 14.8894 19.5304Z" fill="white"/>
</svg>
