<svg width="37" height="37" viewBox="0 0 37 37" fill="none" xmlns="http://www.w3.org/2000/svg">
<ellipse cx="18.228" cy="18.4224" rx="17.9985" ry="18" fill="#55ACE3"/>
<path d="M27.7672 13.8326C27.1372 14.1026 26.4173 14.2826 25.6973 14.3726C26.4173 13.9226 27.0472 13.2026 27.3172 12.3926C26.5973 12.8426 25.8773 13.1126 24.9774 13.2926C24.3475 12.5726 23.3575 12.1226 22.3676 12.1226C20.3878 12.1226 18.7679 13.7426 18.7679 15.7226C18.7679 15.9926 18.7679 16.2626 18.8579 16.5326C15.8882 16.3526 13.1884 14.9126 11.3885 12.7526C11.1186 13.2926 10.9386 13.9226 10.9386 14.5526C10.9386 15.8126 11.5685 16.8926 12.5585 17.5226C11.9285 17.5226 11.3885 17.3426 10.9386 17.0726C10.9386 18.7826 12.1985 20.3126 13.8183 20.5826C13.5484 20.6726 13.1884 20.6726 12.8284 20.6726C12.5585 20.6726 12.3785 20.6726 12.1085 20.5826C12.5585 22.0226 13.9083 23.1026 15.5282 23.1026C14.2683 24.0926 12.7384 24.6326 11.0286 24.6326C10.7586 24.6326 10.4886 24.6326 10.1287 24.5426C11.7485 25.5326 13.6384 26.1626 15.7082 26.1626C22.3676 26.1626 25.9673 20.6726 25.9673 15.9026V15.4526C26.6872 15.1826 27.3172 14.5526 27.7672 13.8326Z" fill="white"/>
</svg>
