<svg width="24" height="24" viewBox="0 0 24 24" fill="none" xmlns="http://www.w3.org/2000/svg">
<path fill-rule="evenodd" clip-rule="evenodd" d="M5.18087 4.05769H6.9599H16.7468H18.5253L18.6167 4.06266C20.3505 4.15692 21.7287 5.59475 21.7287 7.35314V18.7256C21.7287 20.5456 20.2532 22.021 18.4332 22.021H5.2727C3.45268 22.021 1.97727 20.5456 1.97727 18.7255V7.35313C1.97727 5.59458 3.35569 4.15665 5.08968 4.06264L5.18087 4.05769ZM0 7.35313C0 4.53842 2.20551 2.23885 4.98264 2.08827V2.08043V0.988633C4.98264 0.442626 5.42526 0 5.97127 0C6.51727 0 6.9599 0.442626 6.9599 0.988633V2.08043H8.93717H14.7695H16.7468V0.989609C16.7468 0.443602 17.1894 0.000976562 17.7354 0.000976562C18.2814 0.000976562 18.7241 0.443602 18.7241 0.989609V2.08043V2.08832C21.5008 2.23927 23.7059 4.53869 23.7059 7.35314V18.7256C23.7059 21.6376 21.3453 23.9983 18.4332 23.9983H5.2727C2.36067 23.9983 0 21.6376 0 18.7255V7.35313ZM6.23677 7.41232C5.69077 7.41232 5.24814 7.85495 5.24814 8.40096C5.24814 8.94696 5.69077 9.38959 6.23677 9.38959H17.4721C18.0181 9.38959 18.4608 8.94696 18.4608 8.40096C18.4608 7.85495 18.0181 7.41232 17.4721 7.41232H6.23677ZM18.5783 12.8825C18.5783 13.5454 18.0409 14.0827 17.378 14.0827C16.7151 14.0827 16.1778 13.5454 16.1778 12.8825C16.1778 12.2196 16.7151 11.6822 17.378 11.6822C18.0409 11.6822 18.5783 12.2196 18.5783 12.8825ZM6.32851 14.0837C6.9914 14.0837 7.52877 13.5463 7.52877 12.8834C7.52877 12.2206 6.9914 11.6832 6.32851 11.6832C5.66563 11.6832 5.12825 12.2206 5.12825 12.8834C5.12825 13.5463 5.66563 14.0837 6.32851 14.0837ZM11.854 14.084C12.5168 14.084 13.0542 13.5466 13.0542 12.8837C13.0542 12.2208 12.5168 11.6834 11.854 11.6834C11.1911 11.6834 10.6537 12.2208 10.6537 12.8837C10.6537 13.5466 11.1911 14.084 11.854 14.084ZM13.0543 17.65C13.0543 18.3129 12.517 18.8503 11.8541 18.8503C11.1912 18.8503 10.6538 18.3129 10.6538 17.65C10.6538 16.9872 11.1912 16.4498 11.8541 16.4498C12.517 16.4498 13.0543 16.9872 13.0543 17.65ZM7.52841 17.6501C7.52841 18.313 6.99103 18.8503 6.32815 18.8503C5.66526 18.8503 5.12789 18.313 5.12789 17.6501C5.12789 16.9872 5.66526 16.4498 6.32815 16.4498C6.99103 16.4498 7.52841 16.9872 7.52841 17.6501ZM17.3791 18.8503C18.042 18.8503 18.5794 18.3129 18.5794 17.65C18.5794 16.9872 18.042 16.4498 17.3791 16.4498C16.7162 16.4498 16.1789 16.9872 16.1789 17.65C16.1789 18.3129 16.7162 18.8503 17.3791 18.8503Z" fill="black" fill-opacity="0.33"/>
</svg>
