<svg width="36" height="37" viewBox="0 0 36 37" fill="none" xmlns="http://www.w3.org/2000/svg">
<ellipse cx="18.0014" cy="18.4224" rx="17.9985" ry="18" fill="#7C509A"/>
<path d="M23.6295 9.91369C20.1994 9.25859 16.6374 9.25859 13.2073 9.91369C11.6902 10.2412 9.77726 12.0755 9.44745 13.5167C8.85378 16.3336 8.85378 19.2161 9.44745 22.033C9.84323 23.4742 11.7562 25.3084 13.2073 25.636C13.2733 25.636 13.3393 25.7015 13.3393 25.767V29.8941C13.3393 30.0907 13.6031 30.2217 13.7351 30.0251L15.7139 27.9943C15.7139 27.9943 17.2971 26.3566 17.5609 26.0946C17.5609 26.0946 17.6269 26.0291 17.6928 26.0291C19.6717 26.0946 21.7166 25.898 23.6955 25.5705C25.2126 25.2429 27.1256 23.4087 27.4554 21.9675C28.0491 19.1505 28.0491 16.2681 27.4554 13.4512C27.0596 12.0755 25.1467 10.2412 23.6295 9.91369ZM23.6955 22.2295C23.3657 22.8846 22.9699 23.4087 22.3103 23.7362C22.1124 23.8017 21.9145 23.8672 21.7166 23.9327C21.4527 23.8672 21.2548 23.8017 21.057 23.7362C18.9461 22.8846 16.9672 21.7054 15.3841 20.0022C14.5266 19.0195 13.801 17.9059 13.2073 16.7267C12.9435 16.1371 12.6796 15.613 12.4818 15.0234C12.2839 14.4994 12.6137 13.9753 12.9435 13.5822C13.2733 13.1892 13.6691 12.9271 14.1308 12.7306C14.4606 12.5341 14.7905 12.6651 15.0543 12.9271C15.582 13.5822 16.1097 14.2373 16.5055 14.9579C16.7694 15.4165 16.7034 15.9406 16.2416 16.2681C16.1097 16.3336 16.0438 16.3991 15.9118 16.5302C15.8459 16.5957 15.7139 16.6612 15.648 16.7922C15.5161 16.9887 15.5161 17.1853 15.582 17.3818C16.1097 18.8885 17.0992 20.0677 18.6163 20.7228C18.8802 20.8538 19.0781 20.9193 19.4079 20.9193C19.8696 20.8538 20.0675 20.3297 20.3973 20.0677C20.7271 19.8056 21.1229 19.8056 21.5187 20.0022C21.8485 20.1987 22.1783 20.4607 22.5741 20.7228C22.9039 20.9848 23.2337 21.1813 23.5636 21.4434C23.7614 21.5744 23.8274 21.9019 23.6955 22.2295ZM20.925 17.3163C20.7931 17.3163 20.8591 17.3163 20.925 17.3163C20.6612 17.3163 20.5952 17.1853 20.5293 16.9887C20.5293 16.8577 20.5293 16.6612 20.4633 16.5302C20.3973 16.2681 20.2654 16.0061 20.0016 15.8096C19.8696 15.744 19.7377 15.6785 19.6058 15.613C19.4079 15.5475 19.276 15.5475 19.0781 15.5475C18.8802 15.482 18.8142 15.351 18.8142 15.1545C18.8142 15.0234 19.0121 14.8924 19.144 14.8924C20.1994 14.9579 20.991 15.5475 21.1229 16.7922C21.1229 16.8577 21.1229 16.9887 21.1229 17.0542C21.1229 17.1853 21.057 17.3163 20.925 17.3163ZM20.2654 14.4339C19.9356 14.3028 19.6058 14.1718 19.21 14.1063C19.0781 14.1063 18.8802 14.0408 18.7483 14.0408C18.5504 14.0408 18.4184 13.9098 18.4844 13.7132C18.4844 13.5167 18.6163 13.3857 18.8142 13.4512C19.4738 13.5167 20.0675 13.6477 20.6612 13.9098C21.8485 14.4994 22.5081 15.482 22.706 16.7922C22.706 16.8577 22.706 16.9232 22.706 16.9887C22.706 17.1197 22.706 17.2508 22.706 17.4473C22.706 17.5128 22.706 17.5783 22.706 17.6438C22.6401 17.9059 22.1783 17.9714 22.1124 17.6438C22.1124 17.5783 22.0464 17.4473 22.0464 17.3818C22.0464 16.7922 21.9145 16.2026 21.6506 15.6785C21.2549 15.0889 20.7931 14.6959 20.2654 14.4339ZM23.8274 18.3644C23.6295 18.3644 23.4976 18.1679 23.4976 17.9714C23.4976 17.5783 23.4316 17.1853 23.3657 16.7922C23.1018 14.6959 21.3868 12.9926 19.3419 12.6651C19.0121 12.5996 18.6823 12.5996 18.4184 12.5341C18.2205 12.5341 17.9567 12.5341 17.8907 12.272C17.8248 12.0755 18.0227 11.879 18.2205 11.879C18.2865 11.879 18.3525 11.879 18.3525 11.879C21.057 11.9445 18.4844 11.879 18.3525 11.879C21.1229 11.9445 23.4316 13.7788 23.8934 16.5302C23.9593 16.9887 24.0253 17.4473 24.0253 17.9714C24.1572 18.1679 24.0253 18.3644 23.8274 18.3644Z" fill="white"/>
</svg>
