<svg width="37" height="37" viewBox="0 0 37 37" fill="none" xmlns="http://www.w3.org/2000/svg">
<ellipse cx="18.4103" cy="18.4224" rx="17.9985" ry="18" fill="#7294C7"/>
<path d="M27.2352 23.0262C27.2352 22.9515 27.1605 22.9515 27.1605 22.8767C26.8617 22.279 26.1892 21.5318 25.2927 20.7099C24.8444 20.3363 24.6202 20.0374 24.4708 19.8879C24.2467 19.589 24.2467 19.3649 24.3214 19.066C24.3961 18.8418 24.6949 18.4682 25.2179 17.7957C25.5168 17.4221 25.6662 17.198 25.8904 16.9738C27.0111 15.4794 27.5341 14.508 27.3847 14.0597L27.31 13.985C27.2352 13.9103 27.1605 13.8356 27.0111 13.8356C26.8617 13.7608 26.6375 13.7608 26.4134 13.8356H23.5742C23.4995 13.8356 23.4995 13.8356 23.3501 13.8356C23.2754 13.8356 23.2007 13.8356 23.2007 13.8356H23.126H23.0512L22.9765 13.9103C22.9018 13.985 22.9018 13.985 22.9018 14.0597C22.6029 14.8816 22.2294 15.5541 21.8558 16.3013C21.6317 16.6749 21.4075 17.0485 21.1834 17.3474C20.9592 17.6463 20.8098 17.8705 20.6604 18.0199C20.5109 18.1693 20.3615 18.2441 20.2868 18.3935C20.2121 18.4682 20.0627 18.543 20.0627 18.4682C19.9879 18.4682 19.9132 18.4682 19.9132 18.3935C19.8385 18.3188 19.7638 18.2441 19.6891 18.1693C19.6144 18.0946 19.6144 17.9452 19.5396 17.7957C19.5396 17.6463 19.5396 17.4969 19.5396 17.4221C19.5396 17.3474 19.5396 17.1233 19.5396 16.9738C19.5396 16.7497 19.5396 16.6002 19.5396 16.5255C19.5396 16.3013 19.5396 16.0025 19.5396 15.7036C19.5396 15.4047 19.5396 15.1805 19.5396 15.0311C19.5396 14.8816 19.5396 14.6575 19.5396 14.508C19.5396 14.2839 19.5396 14.1344 19.5396 14.0597C19.5396 13.985 19.4649 13.8356 19.4649 13.7608C19.3902 13.6861 19.3155 13.6114 19.2408 13.5367C19.1661 13.462 19.0167 13.462 18.9419 13.3872C18.5684 13.3125 18.1201 13.2378 17.5971 13.2378C16.4017 13.2378 15.5798 13.3125 15.2809 13.462C15.1315 13.5367 14.9821 13.6114 14.9074 13.7608C14.7579 13.9103 14.7579 13.985 14.8326 13.985C15.2062 14.0597 15.5051 14.2092 15.6545 14.4333L15.7292 14.5828C15.8039 14.6575 15.8039 14.8069 15.8786 15.0311C15.9534 15.2552 15.9534 15.4794 15.9534 15.7783C15.9534 16.2266 15.9534 16.6749 15.9534 16.9738C15.9534 17.3474 15.8786 17.5716 15.8786 17.7957C15.8786 18.0199 15.8039 18.1694 15.7292 18.2441C15.6545 18.3935 15.6545 18.4682 15.5798 18.4682C15.5798 18.4682 15.5798 18.543 15.5051 18.543C15.4304 18.543 15.3556 18.6177 15.2062 18.6177C15.1315 18.6177 14.9821 18.543 14.9074 18.4682C14.7579 18.3935 14.6085 18.2441 14.5338 18.0946C14.3844 17.9452 14.2349 17.721 14.0855 17.4221C13.9361 17.1233 13.7119 16.8244 13.5625 16.3761L13.4131 16.0772C13.3384 15.9277 13.1889 15.6289 13.0395 15.2552C12.8901 14.8816 12.7406 14.5828 12.5912 14.2092C12.5165 14.0597 12.4418 13.985 12.3671 13.9103H12.2924C12.2924 13.9103 12.2176 13.8356 12.1429 13.8356C12.0682 13.8356 11.9935 13.7608 11.9188 13.7608H9.22907C8.93021 13.7608 8.78078 13.8356 8.70607 13.9103L8.63135 13.985C8.63135 13.985 8.63135 14.0597 8.63135 14.1344C8.63135 14.2092 8.63135 14.2839 8.70607 14.4333C9.07964 15.33 9.52792 16.2266 9.97621 17.1233C10.4245 17.9452 10.8728 18.6924 11.1716 19.2154C11.5452 19.7385 11.8441 20.2615 12.2176 20.7099C12.5912 21.1582 12.8154 21.4571 12.8901 21.6065C13.0395 21.7559 13.1142 21.8307 13.1889 21.9054L13.4131 22.1295C13.5625 22.279 13.7866 22.5031 14.0855 22.7273C14.3844 22.9515 14.7579 23.1756 15.1315 23.3998C15.5051 23.624 15.9534 23.7734 16.4017 23.9228C16.9247 24.0723 17.3729 24.147 17.8212 24.0723H18.9419C19.1661 24.0723 19.3155 23.9976 19.4649 23.8481L19.5396 23.7734C19.5396 23.6987 19.6144 23.6987 19.6144 23.624C19.6144 23.5492 19.6144 23.4745 19.6144 23.3251C19.6144 23.0262 19.6144 22.802 19.6891 22.5779C19.7638 22.3537 19.7638 22.2043 19.8385 22.0548C19.9132 21.9054 19.9879 21.8307 20.0627 21.7559C20.1374 21.6812 20.2121 21.6065 20.2121 21.6065H20.2868C20.4362 21.5318 20.6604 21.6065 20.8098 21.7559C21.0339 21.9054 21.2581 22.1295 21.4075 22.3537C21.5569 22.5779 21.7811 22.802 22.08 23.1009C22.3788 23.3998 22.603 23.624 22.7524 23.6987L22.9765 23.8481C23.1259 23.9228 23.2754 23.9976 23.4995 24.0723C23.7237 24.147 23.8731 24.147 24.0225 24.147L26.5628 24.0723C26.787 24.0723 27.0111 23.9976 27.1605 23.9228C27.31 23.8481 27.3847 23.7734 27.3847 23.624C27.3847 23.5492 27.3847 23.3998 27.3847 23.3251C27.2352 23.1756 27.2352 23.1009 27.2352 23.0262Z" fill="white"/>
</svg>
