<svg width="37" height="37" viewBox="0 0 37 37" fill="none" xmlns="http://www.w3.org/2000/svg">
<ellipse cx="18.706" cy="18.4224" rx="17.9985" ry="18" fill="#48C95F"/>
<path d="M25.8394 11.2787C24.0615 9.50684 21.6909 8.52246 19.1887 8.52246C13.9867 8.52246 9.77239 12.7225 9.77239 17.9068C9.77239 19.5475 10.2333 21.1881 11.0235 22.5662L9.70654 27.4225L14.711 26.11C16.0938 26.8318 17.6083 27.2256 19.1887 27.2256C24.3907 27.2256 28.605 23.0256 28.605 17.8412C28.5391 15.4131 27.6173 13.0506 25.8394 11.2787ZM23.7322 21.2537C23.5347 21.7787 22.6128 22.3037 22.1519 22.3693C21.7568 22.435 21.23 22.435 20.7032 22.3037C20.374 22.1725 19.913 22.0412 19.3862 21.7787C17.0157 20.7943 15.5012 18.4318 15.3695 18.235C15.2378 18.1037 14.3818 16.9881 14.3818 15.8068C14.3818 14.6256 14.9744 14.1006 15.1719 13.8381C15.3695 13.5756 15.6329 13.5756 15.8304 13.5756C15.9621 13.5756 16.1597 13.5756 16.2914 13.5756C16.4231 13.5756 16.6206 13.51 16.8181 13.9693C17.0157 14.4287 17.4766 15.61 17.5425 15.6756C17.6083 15.8068 17.6083 15.9381 17.5425 16.0693C17.4766 16.2006 17.4108 16.3318 17.2791 16.4631C17.1474 16.5943 17.0157 16.7912 16.9498 16.8568C16.8181 16.9881 16.6865 17.1193 16.8181 17.3162C16.9498 17.5787 17.4108 18.3006 18.1351 18.9568C19.057 19.7443 19.7813 20.0068 20.0447 20.1381C20.3081 20.2693 20.4398 20.2037 20.5715 20.0725C20.7032 19.9412 21.1641 19.4162 21.2958 19.1537C21.4275 18.8912 21.6251 18.9568 21.8226 19.0225C22.0202 19.0881 23.2054 19.6787 23.403 19.81C23.6664 19.9412 23.7981 20.0068 23.8639 20.0725C23.9298 20.2693 23.9298 20.7287 23.7322 21.2537Z" fill="white"/>
</svg>
