<svg width="274" height="107" viewBox="0 0 274 107" fill="none" xmlns="http://www.w3.org/2000/svg">
<rect width="273.208" height="107" rx="13" fill="white"/>
<path d="M79.6045 46.0654H83.3919V51.9516H89.8764V46.0654H93.6638V61.2832H89.8764V55.11H83.3919V61.2832H79.6045V46.0654Z" fill="black"/>
<path d="M104.003 61.6276C102.97 61.6276 101.985 61.4745 101.048 61.1682C100.13 60.8428 99.3264 60.3642 98.6378 59.7326C97.9492 59.0817 97.4039 58.2682 97.0023 57.292C96.6006 56.2966 96.3998 55.1385 96.3998 53.8177V53.2435C96.3998 51.9801 96.5911 50.8794 96.9735 49.9415C97.3562 49.0035 97.8822 48.2283 98.5516 47.6157C99.2213 46.9841 99.9958 46.5151 100.876 46.2088C101.756 45.8834 102.702 45.7207 103.716 45.7207C106.107 45.7207 107.925 46.3524 109.168 47.6157C110.411 48.8791 111.033 50.7072 111.033 53.0999V54.7078H100.273C100.292 55.3778 100.407 55.9616 100.618 56.4593C100.828 56.9378 101.105 57.3302 101.45 57.6365C101.794 57.9428 102.186 58.1725 102.626 58.3256C103.085 58.4596 103.544 58.5266 104.003 58.5266C104.979 58.5266 105.715 58.383 106.213 58.0959C106.71 57.8088 107.064 57.3877 107.274 56.8326H110.746C110.44 58.4213 109.684 59.6177 108.479 60.4217C107.274 61.2256 105.782 61.6276 104.003 61.6276ZM103.86 48.8217C103.42 48.8217 102.98 48.8791 102.54 48.9939C102.119 49.1088 101.746 49.2907 101.421 49.5395C101.096 49.7883 100.828 50.1233 100.618 50.5445C100.407 50.9656 100.292 51.4728 100.273 52.0662H107.36C107.341 51.4346 107.236 50.9081 107.045 50.487C106.872 50.0659 106.624 49.7309 106.299 49.4821C105.993 49.2332 105.629 49.061 105.208 48.9652C104.788 48.8695 104.338 48.8217 103.86 48.8217Z" fill="black"/>
<path d="M117.182 49.2239H112.333V46.0654H125.818V49.2239H120.969V61.2832H117.182V49.2239Z" fill="black"/>
<path d="M134.713 61.6276C133.68 61.6276 132.695 61.4745 131.758 61.1682C130.84 60.8428 130.037 60.3547 129.348 59.7038C128.659 59.053 128.114 58.2395 127.712 57.2633C127.311 56.287 127.11 55.1385 127.11 53.8177V53.2435C127.11 51.9992 127.311 50.9081 127.712 49.9702C128.114 49.0322 128.659 48.2474 129.348 47.6157C130.037 46.9841 130.84 46.5151 131.758 46.2088C132.695 45.8834 133.68 45.7207 134.713 45.7207C135.746 45.7207 136.722 45.8834 137.64 46.2088C138.558 46.5151 139.361 46.9841 140.05 47.6157C140.758 48.2474 141.313 49.0322 141.714 49.9702C142.116 50.9081 142.317 51.9992 142.317 53.2435V53.8177C142.317 55.1194 142.116 56.2583 141.714 57.2345C141.313 58.2108 140.758 59.0243 140.05 59.6751C139.361 60.326 138.558 60.8141 137.64 61.1395C136.722 61.4649 135.746 61.6276 134.713 61.6276ZM134.713 58.4118C135.784 58.4118 136.674 58.0289 137.382 57.2633C138.109 56.4976 138.472 55.3491 138.472 53.8177V53.2435C138.472 51.8461 138.109 50.7837 137.382 50.0563C136.674 49.3098 135.784 48.9365 134.713 48.9365C133.623 48.9365 132.724 49.3098 132.016 50.0563C131.308 50.7837 130.955 51.8461 130.955 53.2435V53.8177C130.955 55.3682 131.308 56.5263 132.016 57.292C132.724 58.0385 133.623 58.4118 134.713 58.4118Z" fill="black"/>
<path d="M144.895 61.6278C144.742 61.6278 144.55 61.6182 144.321 61.5991C144.091 61.5991 143.9 61.5799 143.747 61.5417V58.1248C143.843 58.144 143.986 58.1535 144.177 58.1535C144.541 58.1535 144.856 58.0483 145.124 57.8377C145.392 57.608 145.612 57.2252 145.784 56.6892C145.975 56.1532 146.109 55.445 146.186 54.5644C146.281 53.6648 146.329 52.5545 146.329 51.2337V46.0654H158.38V61.2832H154.593V49.2239H149.83V51.808C149.83 53.7796 149.725 55.4067 149.514 56.6892C149.323 57.9525 149.017 58.9479 148.596 59.6753C148.194 60.4027 147.678 60.91 147.047 61.1971C146.435 61.4842 145.717 61.6278 144.895 61.6278Z" fill="black"/>
<path d="M168.702 61.6276C167.669 61.6276 166.684 61.4745 165.746 61.1682C164.828 60.8428 164.025 60.3547 163.336 59.7038C162.647 59.053 162.102 58.2395 161.701 57.2633C161.299 56.287 161.098 55.1385 161.098 53.8177V53.2435C161.098 51.9992 161.299 50.9081 161.701 49.9702C162.102 49.0322 162.647 48.2474 163.336 47.6157C164.025 46.9841 164.828 46.5151 165.746 46.2088C166.684 45.8834 167.669 45.7207 168.702 45.7207C169.735 45.7207 170.71 45.8834 171.628 46.2088C172.546 46.5151 173.35 46.9841 174.039 47.6157C174.746 48.2474 175.301 49.0322 175.703 49.9702C176.104 50.9081 176.305 51.9992 176.305 53.2435V53.8177C176.305 55.1194 176.104 56.2583 175.703 57.2345C175.301 58.2108 174.746 59.0243 174.039 59.6751C173.35 60.326 172.546 60.8141 171.628 61.1395C170.71 61.4649 169.735 61.6276 168.702 61.6276ZM168.702 58.4118C169.773 58.4118 170.662 58.0289 171.37 57.2633C172.097 56.4976 172.46 55.3491 172.46 53.8177V53.2435C172.46 51.8461 172.097 50.7837 171.37 50.0563C170.662 49.3098 169.773 48.9365 168.702 48.9365C167.611 48.9365 166.712 49.3098 166.005 50.0563C165.297 50.7837 164.943 51.8461 164.943 53.2435V53.8177C164.943 55.3682 165.297 56.5263 166.005 57.292C166.712 58.0385 167.611 58.4118 168.702 58.4118Z" fill="black"/>
<path d="M179.307 46.0654H190.21V49.2239H183.094V61.2832H179.307V46.0654Z" fill="black"/>
<path d="M192.497 46.0654H196.285V55.8278L203.056 46.0654H206.557V61.2832H202.769V51.5209L195.998 61.2832H192.497V46.0654Z" fill="black"/>
<path d="M213.079 55.5694C211.912 55.1865 211.061 54.6123 210.526 53.8466C209.99 53.0809 209.722 52.1813 209.722 51.1476C209.722 50.4011 209.846 49.7215 210.095 49.109C210.363 48.4773 210.755 47.9413 211.271 47.5011C211.788 47.0417 212.438 46.6875 213.223 46.4387C214.026 46.1899 214.963 46.0654 216.034 46.0654H223.208V61.2832H219.42V56.0288H216.694L213.395 61.2832H209.148L213.079 55.5694ZM213.509 51.1476C213.509 51.7984 213.72 52.277 214.141 52.5832C214.581 52.8895 215.164 53.0427 215.891 53.0427H219.42V49.2239H215.891C215.164 49.2239 214.581 49.3865 214.141 49.712C213.72 50.0182 213.509 50.4968 213.509 51.1476Z" fill="black"/>
<path fill-rule="evenodd" clip-rule="evenodd" d="M54.8956 53.9565C54.7747 53.9468 54.6524 53.9419 54.529 53.9419C52.0277 53.9419 50 55.9696 50 58.4709C50 60.9723 52.0277 63 54.529 63C57.0304 63 59.0581 60.9723 59.0581 58.4709C59.0581 58.2789 59.0461 58.0897 59.0229 57.904C56.8812 57.7325 55.1596 56.0709 54.8956 53.9565Z" fill="#5D00F5"/>
<path fill-rule="evenodd" clip-rule="evenodd" d="M59.0581 48.529C59.0581 46.0277 57.0304 44 54.529 44C52.0277 44 50 46.0277 50 48.529C50 51.0304 52.0277 53.0581 54.529 53.0581C54.6449 53.0581 54.7597 53.0537 54.8733 53.0452C55.0407 50.8184 56.8184 49.0407 59.0452 48.8733C59.0537 48.7597 59.0581 48.6449 59.0581 48.529Z" fill="#EB236B"/>
<path fill-rule="evenodd" clip-rule="evenodd" d="M63.904 53.0229C64.0897 53.0461 64.2789 53.0581 64.4709 53.0581C66.9723 53.0581 69 51.0304 69 48.529C69 46.0277 66.9723 44 64.4709 44C61.9696 44 59.9419 46.0277 59.9419 48.529C59.9419 48.6524 59.9468 48.7747 59.9565 48.8956C62.0709 49.1596 63.7325 50.8812 63.904 53.0229Z" fill="#4BD0A0"/>
<path fill-rule="evenodd" clip-rule="evenodd" d="M59.98 57.8805C59.9549 58.0737 59.9419 58.2708 59.9419 58.4709C59.9419 60.9723 61.9696 63 64.4709 63C66.9723 63 69 60.9723 69 58.4709C69 55.9696 66.9723 53.9419 64.4709 53.9419C64.2708 53.9419 64.0737 53.9549 63.8805 53.98C63.6163 56.0091 62.0091 57.6163 59.98 57.8805Z" fill="#0066FF"/>
</svg>
